<svg width="269" height="60" viewBox="0 0 269 60" fill="none" xmlns="http://www.w3.org/2000/svg">
<rect width="269" height="60" fill="#F7FDFE"/>
<g clip-path="url(#clip0_215:12)">
<path d="M217 47.6581C219.824 42.8995 222.655 38.1469 225.479 33.3883C224.925 32.0616 224.371 30.7407 223.816 29.414C231.529 29.3904 239.236 29.3609 246.949 29.3373C244.738 25.6461 242.526 21.9548 240.309 18.2635C238.694 20.8757 237.078 23.4879 235.462 26.1001C233.593 26.1001 231.724 26.1001 229.855 26.1001C233.339 20.3981 236.824 14.702 240.309 9C245.256 17.3083 250.204 25.6166 255.151 33.919C247.073 33.9013 238.994 33.8836 230.91 33.8718C228.115 38.4889 225.326 43.1 222.531 47.717C220.685 47.6875 218.84 47.6757 217 47.6581Z" fill="#112548" stroke="#112548" stroke-miterlimit="10"/>
<path d="M258.028 47.9469C255.858 44.3264 253.689 40.7 251.519 37.0795C253.211 37.1207 254.897 37.1561 256.59 37.1974C258.919 40.8002 261.242 44.403 263.571 48C261.72 47.9823 259.874 47.9646 258.028 47.9469Z" fill="#112548" stroke="#112548" stroke-miterlimit="10"/>
</g>
<defs>
<clipPath id="clip0_215:12">
<rect width="48" height="48" fill="white" transform="translate(216 4)"/>
</clipPath>
</defs>
</svg>
